<svg xmlns="http://www.w3.org/2000/svg" viewBox="0 0 64 64">
  <rect width="64" height="64" rx="14" fill="#fff8ec" />
  <path d="M18 36c0-10 7-17 17-17 9 0 16 7 16 17 0 11-8 18-17 18-10 0-16-8-16-18z" fill="#c94f3d" />
  <path d="M29 20c1-8 6-12 14-12" fill="none" stroke="#6f8b73" stroke-width="5" stroke-linecap="round" />
  <path d="M25 27c6-5 16-5 21 1" fill="none" stroke="#f0c96d" stroke-width="4" stroke-linecap="round" opacity=".8" />
  <path d="M22 39c6 6 16 8 25 1" fill="none" stroke="#8f352d" stroke-width="3" stroke-linecap="round" opacity=".55" />
  <path d="M14 12l6 2-4 4 5 4-7 1" fill="none" stroke="#3c2f2b" stroke-width="3" stroke-linecap="round" stroke-linejoin="round" />
</svg>
